<svg width="43" height="43" viewBox="0 0 43 43" fill="none" xmlns="http://www.w3.org/2000/svg">
<g clip-path="url(#clip0_6635_3094)">
<path d="M3.80385 7.63979C3.5361 7.64012 3.26835 7.64189 3.00062 7.6451C2.73523 7.65395 2.46454 7.6681 2.20092 7.71587C1.80253 7.77883 1.42477 7.93548 1.09874 8.17293C0.772699 8.41038 0.5077 8.72185 0.325538 9.08171C0.201692 9.32587 0.123846 9.57356 0.0778462 9.84248C0.0283077 10.1043 0.0123846 10.3733 0.00707692 10.6386C0.00345497 10.7619 0.00109587 10.8851 0 11.0084L0 31.4554C0 31.5793 0.00353846 31.6996 0.00530769 31.8216C0.0123846 32.087 0.0283077 32.3577 0.0760769 32.6213C0.123846 32.8867 0.203462 33.1362 0.327308 33.3803C0.571275 33.8606 0.961607 34.251 1.44192 34.4949C1.68608 34.6188 1.93377 34.6984 2.20269 34.7462C2.46454 34.7939 2.73346 34.8099 2.99885 34.8169L3.36685 34.8223H39.0947L39.4609 34.8169C39.7263 34.8099 39.997 34.7939 40.2606 34.7462C40.526 34.6984 40.7755 34.6206 41.0178 34.4967C41.4994 34.253 41.8905 33.8619 42.1342 33.3803C42.2581 33.1362 42.3377 32.8885 42.3837 32.6196C42.4315 32.3577 42.4474 32.0888 42.4545 31.8234C42.458 31.6996 42.4598 31.5793 42.4598 31.4554L42.4615 31.0202V11.0066C42.4615 10.8828 42.458 10.7625 42.4545 10.6404C42.4511 10.3724 42.4275 10.1051 42.3837 9.84071C42.299 9.30792 42.0481 8.81553 41.6668 8.43391C41.2855 8.05228 40.7933 7.80096 40.2606 7.71587C39.9962 7.67227 39.7289 7.64861 39.4609 7.6451C39.1938 7.63754 38.9266 7.63577 38.6595 7.63979H3.80385ZM3.80385 8.54564H39.0858C39.2026 8.54564 39.3176 8.54918 39.4344 8.55095C39.6378 8.55802 39.8767 8.56864 40.0978 8.60756C40.2907 8.64294 40.4517 8.69602 40.6056 8.77387C40.916 8.93141 41.1682 9.18359 41.3257 9.49395C41.4068 9.65433 41.4628 9.82616 41.492 10.0035C41.5309 10.2211 41.5415 10.4599 41.5468 10.6652C41.5504 10.7802 41.5522 10.8952 41.5522 11.0137V31.4519C41.5522 31.5669 41.5522 31.6819 41.5468 31.7986C41.5415 32.0021 41.5309 32.2409 41.4902 32.4621C41.452 32.7224 41.3516 32.9698 41.1976 33.1831C41.0437 33.3965 40.8406 33.5698 40.6056 33.6882C40.4463 33.7688 40.2757 33.8248 40.0996 33.8545C39.8813 33.8892 39.6607 33.9081 39.4397 33.9111L39.0858 33.9164H3.37215C3.25538 33.9164 3.13685 33.9129 3.02538 33.9111C2.80316 33.9082 2.58143 33.8893 2.36192 33.8545C2.16908 33.8191 2.00808 33.766 1.85238 33.6882C1.54203 33.5312 1.29024 33.2788 1.13408 32.9681C1.05324 32.8076 0.997167 32.6358 0.967769 32.4586C0.932632 32.2403 0.913709 32.0197 0.911154 31.7986C0.908781 31.6825 0.907601 31.5663 0.907615 31.4501V11.0119C0.907615 10.8969 0.907615 10.7802 0.911154 10.6634C0.918231 10.4617 0.928846 10.2246 0.967769 9.99994C1.00315 9.80887 1.05623 9.64787 1.13408 9.49218C1.29172 9.18234 1.54393 8.93075 1.85415 8.77387C2.01432 8.69379 2.18541 8.63775 2.36192 8.60756C2.58308 8.56864 2.82192 8.55625 3.02538 8.55095C3.14038 8.54741 3.25715 8.54741 3.37215 8.54564H3.80385ZM12.1369 15.0918C11.6062 15.1201 10.9551 15.4439 10.58 15.8986C10.2421 16.2878 9.94308 16.9247 10.0209 17.5227C10.6189 17.5758 11.2152 17.2237 11.592 16.7832C11.9547 16.3267 12.2024 15.7163 12.1369 15.0936V15.0918ZM16.0416 15.8349V25.5533H17.549V22.2324H19.6367C21.5439 22.2324 22.8832 20.9249 22.8832 19.0266C22.8832 17.1335 21.5705 15.8331 19.6845 15.8331L16.0416 15.8349ZM17.549 17.1069H19.2864C20.5938 17.1069 21.3405 17.8076 21.3405 19.0336C21.3405 20.2579 20.5938 20.9656 19.2811 20.9656H17.549V17.1069ZM11.9688 17.6377C11.1727 17.6554 10.5004 18.1331 10.1112 18.1331C9.69539 18.1331 9.062 17.666 8.37554 17.6784C7.929 17.6895 7.49316 17.8174 7.11138 18.0493C6.72959 18.2811 6.41517 18.6089 6.19938 19C5.267 20.6065 5.95346 22.9896 6.86108 24.2989C7.30162 24.9464 7.83238 25.6594 8.53123 25.6329C9.19115 25.6081 9.45123 25.2047 10.2527 25.2047C11.0559 25.2047 11.2895 25.6329 11.9865 25.6205C12.7119 25.6081 13.1666 24.9729 13.6054 24.3236C14.1114 23.5859 14.3184 22.8729 14.3308 22.8357C14.3184 22.8216 12.9331 22.2908 12.9207 20.6967C12.9065 19.3627 14.0088 18.7276 14.0601 18.6886C13.4373 17.7686 12.4678 17.666 12.1316 17.6395C12.0774 17.6361 12.0231 17.6367 11.9688 17.6377ZM26.4836 18.3401C24.7321 18.3401 23.6422 19.2831 23.5608 20.5623H24.9355C25.0629 19.9289 25.5884 19.5255 26.4305 19.5255C27.3187 19.5255 27.8512 19.9961 27.8512 20.7834V21.3301L25.9104 21.4433C24.2278 21.5389 23.2778 22.2996 23.2778 23.5381C23.2778 24.8119 24.2473 25.6736 25.6344 25.6736C26.565 25.6736 27.4602 25.1764 27.8707 24.3873H27.9043V25.5533H29.2985V20.6702C29.2985 19.2495 28.2015 18.3401 26.4836 18.3401ZM29.9159 18.4675L32.4742 25.5603C32.4742 25.5656 32.3451 25.9849 32.3451 25.9973C32.1239 26.7227 31.7612 27.0076 31.0872 27.0076C30.9651 27.0076 30.7227 27.0076 30.6148 26.981V28.1593C30.7209 28.1788 31.0872 28.1929 31.2075 28.1929C32.6759 28.1929 33.3765 27.6409 33.9816 25.923L36.6355 18.4675H35.0998L33.3093 24.2334H33.2828L31.4905 18.4657L29.9159 18.4675ZM27.8512 22.3403V22.8994C27.8512 23.8212 27.0551 24.5218 26.0395 24.5218C25.2575 24.5218 24.7462 24.1184 24.7462 23.4974C24.7462 22.8923 25.2381 22.5066 26.1068 22.4483L27.8512 22.3403Z" fill="white"/>
</g>
<defs>
<clipPath id="clip0_6635_3094">
<rect width="42.4615" height="42.4615" fill="white"/>
</clipPath>
</defs>
</svg>
