<svg xmlns="http://www.w3.org/2000/svg" width="140" height="130" viewBox="0 0 140 130" fill="none">
  <g transform="translate(45.35, 10) scale(0.725)" stroke="#0A1628" fill="none">
    <path d="M27.5523 37.1789C26.3201 35.5205 25.5976 33.4994 25.4236 31.1465L25.3711 30.4417H34.5811L34.6606 31.0068C34.9924 33.3735 35.8971 35.0919 39.0897 35.7159V26.4784C30.2692 25.1611 26.4936 21.9704 26.4936 15.8749C26.4936 10.2534 31.5288 6.12217 39.0897 5.46482V1.2644H44.2076V5.5199C51.6339 6.2567 55.8907 9.8036 56.532 15.8056L56.6095 16.5309H47.6769L47.5719 16.003C47.1625 13.9476 46.1405 12.8046 44.2076 12.2959V21.035C50.7164 21.9538 57.1791 23.9835 57.1791 31.3733C57.1791 36.1478 54.073 39.8184 48.9332 41.5086M44.2076 34.8766C46.1912 34.3166 47.3508 33.0122 47.3508 31.2836C47.3508 29.6434 46.8575 28.6836 44.2076 27.984V34.8766ZM39.0897 12.829C37.1958 13.2826 36.0893 14.4102 36.0893 15.9376C36.0893 17.401 36.3123 18.444 39.0897 19.1527V12.829Z" stroke-width="2" stroke-miterlimit="10"/>
    <path d="M26.3033 60.6248L8.81714 43.1387L1.4897 50.4661L18.9759 67.9523L26.3033 60.6248Z" stroke-width="2" stroke-linejoin="round"/>
    <path d="M48.9632 41.5998L55.6131 38.6425L57.0742 36.4508C58.0269 35.0218 59.4287 33.9511 61.058 33.408C62.28 33.0007 63.6011 33.0007 64.8231 33.408L65.3142 33.5717C66.3607 33.9206 66.8264 35.1395 66.2791 36.0973L61.4751 44.5044L48.9632 56.4813H22.1599" stroke-width="2" stroke-linejoin="round"/>
    <path d="M8.71753 50.3665L11.6485 53.2974" stroke-width="2" stroke-linejoin="round"/>
    <path d="M11.6484 45.9699L17.5104 40.108L21.9068 37.177H30.6998L35.0962 40.108H45.9609C48.0542 40.108 49.7511 41.8049 49.7511 43.8982C49.7511 45.9915 48.0542 47.6884 45.9609 47.6884H32.5132" stroke-width="2" stroke-linejoin="round"/>
  </g>
  <text x="70" y="88" text-anchor="middle" font-family="-apple-system, BlinkMacSystemFont, 'Segoe UI', Helvetica, Arial, sans-serif" font-size="14" fill="#0A1628">15 Days</text>
  <text x="70" y="108" text-anchor="middle" font-family="-apple-system, BlinkMacSystemFont, 'Segoe UI', Helvetica, Arial, sans-serif" font-size="14" fill="#0A1628">Free Return</text>
</svg>
