<svg xmlns="http://www.w3.org/2000/svg" viewBox="0 0 24 18"><path fill="#fff" d="M0 0h24v18H0z"/><path stroke="#b22234" stroke-width="2.77" d="M0 1.38h24M0 4.15h24M0 6.92h24M0 9.69h24M0 12.46h24M0 15.23h24"/><path fill="#3c3b6e" d="M0 0h10.3v9.7H0z"/><g fill="#fff"><circle cx="1.5" cy="1.5" r=".45"/><circle cx="4" cy="1.5" r=".45"/><circle cx="6.5" cy="1.5" r=".45"/><circle cx="9" cy="1.5" r=".45"/><circle cx="2.75" cy="3.4" r=".45"/><circle cx="5.25" cy="3.4" r=".45"/><circle cx="7.75" cy="3.4" r=".45"/><circle cx="1.5" cy="5.3" r=".45"/><circle cx="4" cy="5.3" r=".45"/><circle cx="6.5" cy="5.3" r=".45"/><circle cx="9" cy="5.3" r=".45"/><circle cx="2.75" cy="7.2" r=".45"/><circle cx="5.25" cy="7.2" r=".45"/><circle cx="7.75" cy="7.2" r=".45"/></g></svg>
